<svg title="Close Spotify Playlist" version="1.1" xmlns="http://www.w3.org/2000/svg" xmlns:xlink="http://www.w3.org/1999/xlink" x="0px" y="0px" width="48px" height="48px" viewBox="0 0 48 48" enable-background="new 0 0 48 48" xml:space="preserve"><g transform="translate(0, 0)"><path fill="#444444" d="M24,1C11.3,1,1,11.3,1,24s10.3,23,23,23s23-10.3,23-23S36.7,1,24,1z M34.3,30.3c0.4,0.4,0.4,1,0,1.4 l-2.6,2.6c-0.4,0.4-1,0.4-1.4,0L24,28l-6.3,6.3c-0.4,0.4-1,0.4-1.4,0l-2.6-2.6c-0.4-0.4-0.4-1,0-1.4L20,24l-6.3-6.3 c-0.4-0.4-0.4-1,0-1.4l2.6-2.6c0.4-0.4,1-0.4,1.4,0L24,20l6.3-6.3c0.4-0.4,1-0.4,1.4,0l2.6,2.6c0.4,0.4,0.4,1,0,1.4L28,24L34.3,30.3 z"></path></g></svg>
